<?xml version="1.0" encoding="UTF-8"?>
<svg width="128px" height="135px" viewBox="0 0 128 135" version="1.1" xmlns="http://www.w3.org/2000/svg" xmlns:xlink="http://www.w3.org/1999/xlink">
    <!-- Generator: Sketch 53.2 (72643) - https://sketchapp.com -->
    <title>ZG_icon_home_entreprise</title>
    <desc>Created with Sketch.</desc>
    <defs>
        <filter x="-8.4%" y="-21.8%" width="116.9%" height="143.7%" filterUnits="objectBoundingBox" id="filter-1">
            <feOffset dx="0" dy="12" in="SourceAlpha" result="shadowOffsetOuter1"></feOffset>
            <feGaussianBlur stdDeviation="15" in="shadowOffsetOuter1" result="shadowBlurOuter1"></feGaussianBlur>
            <feColorMatrix values="0 0 0 0 0.0156862745   0 0 0 0 0.0941176471   0 0 0 0 0.223529412  0 0 0 0.1 0" type="matrix" in="shadowBlurOuter1" result="shadowMatrixOuter1"></feColorMatrix>
            <feMerge>
                <feMergeNode in="shadowMatrixOuter1"></feMergeNode>
                <feMergeNode in="SourceGraphic"></feMergeNode>
            </feMerge>
        </filter>
    </defs>
    <g id="Desktop-Design" stroke="none" stroke-width="1" fill="none" fill-rule="evenodd">
        <g id="z0G_Home_1" transform="translate(-128.000000, -2312.000000)">
            <g id="Group-7" transform="translate(32.000000, 2200.000000)">
                <g id="Group-6" filter="url(#filter-1)" transform="translate(0.000000, 63.000000)">
                    <g id="ZG_icon_home_entreprise" transform="translate(110.000000, 54.000000)">
                        <rect id="Rectangle-Copy-31" x="0" y="0" width="100" height="100"></rect>
                        <g id="noun_clipboard_900623_000000" transform="translate(16.000000, 11.000000)" fill="#049BF7" fill-rule="nonzero">
                            <path d="M66.6,39.9 C67.2,39.9 67.6,39.5 67.6,38.9 L67.6,17.9 C67.6,17.3 67.2,16.9 66.6,16.9 L64.9,16.9 L64.9,14.1 C64.9,13.5 64.5,13.1 63.9,13.1 L57.7,13.1 C57.1,13.1 56.7,13.5 56.7,14.1 L56.7,34.6 C56.7,35.1 57,35.5 57.5,35.6 L57.5,76.3 C57.5,76.9 57.9,77.3 58.5,77.3 L63.1,77.3 C63.7,77.3 64.1,76.9 64.1,76.3 L64.1,35.6 C64.5,35.5 64.9,35.1 64.9,34.6 L64.9,18.9 L65.6,18.9 L65.6,38.9 C65.6,39.5 66.1,39.9 66.6,39.9 Z M62.1,71.4 L59.5,71.4 L59.5,35.6 L62.1,35.6 L62.1,71.4 Z M58.7,15.1 L62.9,15.1 L62.9,33.6 L58.7,33.6 L58.7,15.1 Z M59.5,75.3 L59.5,73.4 L62.1,73.4 L62.1,75.3 L59.5,75.3 Z" id="Shape"></path>
                            <g id="noun_clipboard_900617_000000">
                                <path d="M16.1,34.5 L21.9,30.1 L28,36.7 C28.2,36.9 28.5,37 28.7,37 C28.9,37 29.1,36.9 29.3,36.8 L35.1,32.2 L35.1,33.3 C35.1,33.9 35.5,34.3 36.1,34.3 C36.7,34.3 37.1,33.9 37.1,33.3 L37.1,29.7 C37.1,29.1 36.7,28.7 36.1,28.7 L32,28.7 C31.4,28.7 31,29.1 31,29.7 C31,30.3 31.4,30.7 32,30.7 L33.7,30.7 L28.8,34.7 L22.7,28 C22.3,27.6 21.8,27.6 21.4,27.9 L14.9,32.9 C14.5,33.2 14.4,33.9 14.7,34.3 C15,34.7 15.6,34.8 16.1,34.5 Z" id="Path"></path>
                                <circle id="Oval" cx="25.2" cy="6.8" r="1.5"></circle>
                                <path d="M1.3,77.1 L49.2,77.1 C49.8,77.1 50.2,76.7 50.2,76.1 L50.2,12.2 C50.2,11.6 49.8,11.2 49.2,11.2 L39.4,11.2 L39.4,10.3 C39.4,7.8 37.1,5.7 34.3,5.7 L31.7,5.7 C31.2,2.6 28.5,0.2 25.2,0.2 C21.9,0.2 19.2,2.6 18.7,5.7 L16.1,5.7 C13.3,5.7 11,7.7 11,10.3 L11,11.2 L1.2,11.2 C0.6,11.2 0.2,11.6 0.2,12.2 L0.2,76 C0.3,76.6 0.7,77.1 1.3,77.1 Z M13.1,10.4 C13.1,9 14.5,7.8 16.2,7.8 L19.7,7.8 C20.3,7.8 20.7,7.4 20.7,6.8 C20.7,4.3 22.7,2.3 25.2,2.3 C27.7,2.3 29.7,4.3 29.7,6.8 C29.7,7.4 30.1,7.8 30.7,7.8 L34.2,7.8 C35.9,7.8 37.3,8.9 37.3,10.4 L37.3,15.1 L13.1,15.1 L13.1,10.4 Z M12.1,17.1 L38.4,17.1 C39,17.1 39.4,16.7 39.4,16.1 L39.4,13.3 L42,13.3 L42,67.5 L8.4,67.5 L8.4,13.2 L11.1,13.2 L11.1,16 C11.1,16.6 11.5,17.1 12.1,17.1 Z M2.3,13.2 L6.4,13.2 L6.4,68.4 C6.4,69 6.8,69.4 7.4,69.4 L43,69.4 C43.6,69.4 44,69 44,68.4 L44,13.2 L48.1,13.2 L48.1,75 L2.3,75 L2.3,13.2 Z" id="Shape"></path>
                                <path d="M13.2,50.5 L37.2,50.5 C37.8,50.5 38.2,50.1 38.2,49.5 C38.2,48.9 37.8,48.5 37.2,48.5 L13.2,48.5 C12.6,48.5 12.2,48.9 12.2,49.5 C12.2,50.1 12.7,50.5 13.2,50.5 Z" id="Path"></path>
                                <path d="M13.2,58.5 L37.2,58.5 C37.8,58.5 38.2,58.1 38.2,57.5 C38.2,56.9 37.8,56.5 37.2,56.5 L13.2,56.5 C12.6,56.5 12.2,56.9 12.2,57.5 C12.2,58.1 12.7,58.5 13.2,58.5 Z" id="Path"></path>
                            </g>
                        </g>
                    </g>
                </g>
            </g>
        </g>
    </g>
</svg>