<?xml version="1.0" encoding="UTF-8"?>
<svg width="130px" height="129px" viewBox="0 0 130 129" version="1.1" xmlns="http://www.w3.org/2000/svg" xmlns:xlink="http://www.w3.org/1999/xlink">
    <!-- Generator: Sketch 53.2 (72643) - https://sketchapp.com -->
    <title>ZG_icon_home_collectivites</title>
    <desc>Created with Sketch.</desc>
    <defs>
        <filter x="-8.4%" y="-21.8%" width="116.9%" height="143.7%" filterUnits="objectBoundingBox" id="filter-1">
            <feOffset dx="0" dy="12" in="SourceAlpha" result="shadowOffsetOuter1"></feOffset>
            <feGaussianBlur stdDeviation="15" in="shadowOffsetOuter1" result="shadowBlurOuter1"></feGaussianBlur>
            <feColorMatrix values="0 0 0 0 0.0156862745   0 0 0 0 0.0941176471   0 0 0 0 0.223529412  0 0 0 0.1 0" type="matrix" in="shadowBlurOuter1" result="shadowMatrixOuter1"></feColorMatrix>
            <feMerge>
                <feMergeNode in="shadowMatrixOuter1"></feMergeNode>
                <feMergeNode in="SourceGraphic"></feMergeNode>
            </feMerge>
        </filter>
    </defs>
    <g id="Desktop-Design" stroke="none" stroke-width="1" fill="none" fill-rule="evenodd">
        <g id="z0G_Home_1" transform="translate(-448.000000, -2316.000000)">
            <g id="Group-7" transform="translate(32.000000, 2200.000000)">
                <g id="Group-6" filter="url(#filter-1)" transform="translate(0.000000, 63.000000)">
                    <g id="ZG_icon_home_collectivites" transform="translate(431.000000, 54.000000)">
                        <rect id="Rectangle-Copy-32" x="0" y="0" width="100" height="100"></rect>
                        <g id="noun_Village_1003435_000000" transform="translate(11.000000, 13.000000)" fill="#FF7D66" fill-rule="nonzero">
                            <path d="M76.7,71.1 L74.9,71.1 L74.9,66.7 C74.9,66.1 74.5,65.7 73.9,65.7 L65.2,65.7 L65.2,64 C65.2,62.7 66.2,61.6 67.3,61.6 C68.4,61.6 69.4,62.7 69.4,64 C69.4,64.6 69.8,65 70.4,65 C71,65 71.4,64.6 71.4,64 C71.4,61.5 69.5,59.6 67.3,59.6 C66.5,59.6 65.8,59.8 65.2,60.3 L65.2,57.4 C65.2,56.4 65.9,55.6 66.8,55.6 C67.7,55.6 68.4,56.4 68.4,57.4 C68.4,58 68.8,58.4 69.4,58.4 C70,58.4 70.4,58 70.4,57.4 C70.4,55.3 68.8,53.6 66.8,53.6 C66.2,53.6 65.7,53.8 65.2,54 L65.2,52 C65.2,51.4 65.6,50.9 66.1,50.9 C66.6,50.9 67,51.4 67,52 C67,52.6 67.4,53 68,53 C68.6,53 69,52.6 69,52 C69,50.3 67.7,48.9 66.1,48.9 C65.4,48.9 64.7,49.2 64.2,49.7 C63.7,49.2 63,48.9 62.3,48.9 C60.7,48.9 59.4,50.3 59.4,52 C59.4,52.6 59.8,53 60.4,53 C61,53 61.4,52.6 61.4,52 C61.4,51.4 61.8,50.9 62.3,50.9 C62.8,50.9 63.2,51.4 63.2,52 L63.2,54 C62.7,53.7 62.2,53.6 61.6,53.6 C59.6,53.6 58,55.3 58,57.4 C58,58 58.4,58.4 59,58.4 C59.6,58.4 60,58 60,57.4 C60,56.4 60.7,55.6 61.6,55.6 C62.5,55.6 63.2,56.4 63.2,57.4 L63.2,60.3 C62.6,59.9 61.8,59.6 61.1,59.6 C58.8,59.6 57,61.6 57,64 C57,64.6 57.4,65 58,65 C58.6,65 59,64.6 59,64 C59,62.7 60,61.6 61.1,61.6 C62.2,61.6 63.2,62.7 63.2,64 L63.2,65.7 L55.6,65.7 L55.8,25.6 C55.8,25.3 55.7,25.1 55.5,24.9 C55.3,24.7 55.1,24.6 54.8,24.6 L52,24.6 C51.7,22.6 50.5,20.9 49,20.1 C48.9,17.8 47.3,15.7 45.7,15.7 L44.4,15.7 L44.4,9.2 C44.4,8.6 44,8.2 43.4,8.2 C42.8,8.2 42.4,8.6 42.4,9.2 L42.4,15.7 L41,15.7 C39.4,15.7 37.8,17.8 37.7,20.1 C36.3,20.9 35,22.6 34.7,24.6 L31.9,24.6 C31.3,24.6 30.9,25 30.9,25.6 L30.9,71.1 L25.4,71.1 L25.4,63.6 C27.6,63.1 29.2,61.2 29.2,58.9 C29.2,57.1 28.1,55.5 26.6,54.7 C27.3,54.1 27.8,53.2 27.8,52.1 C27.8,50.2 26.3,48.7 24.4,48.7 C22.5,48.7 21,50.2 21,52.1 C21,53.1 21.5,54 22.2,54.7 C20.7,55.5 19.6,57.1 19.6,58.9 C19.6,61.2 21.2,63.1 23.4,63.6 L23.4,71.1 L16.8,71.1 L16.8,68.5 C18.6,68 20,66.4 20,64.4 C20,62.1 18.1,60.2 15.8,60.2 C13.5,60.2 11.6,62.1 11.6,64.4 C11.6,66.4 13,68 14.8,68.5 L14.8,71.1 L8,71.1 L8,66.7 C9.7,66.3 10.9,64.7 10.9,62.9 C10.9,61.6 10.3,60.5 9.3,59.8 C10,59.2 10.4,58.3 10.4,57.3 C10.4,55.4 8.9,53.9 7,53.9 C5.1,53.9 3.6,55.4 3.6,57.3 C3.6,58.3 4,59.2 4.7,59.8 C3.7,60.5 3.1,61.6 3.1,62.9 C3.1,64.7 4.3,66.2 6,66.7 L6,71.1 L1.6,71.1 C1,71.1 0.6,71.5 0.6,72.1 C0.6,72.7 1,73.1 1.6,73.1 L76.7,73.1 C77.3,73.1 77.7,72.7 77.7,72.1 C77.7,71.5 77.2,71.1 76.7,71.1 Z M24.5,50.7 C25.3,50.7 25.9,51.3 25.9,52.1 C25.9,52.9 25.3,53.5 24.5,53.5 C23.7,53.5 23.1,52.9 23.1,52.1 C23.1,51.3 23.7,50.7 24.5,50.7 Z M21.7,58.9 C21.7,57.4 23,56.1 24.5,56.1 C26,56.1 27.3,57.4 27.3,58.9 C27.3,60.4 26,61.7 24.5,61.7 C23,61.7 21.7,60.5 21.7,58.9 Z M13.7,64.5 C13.7,63.3 14.7,62.3 15.9,62.3 C17.1,62.3 18.1,63.3 18.1,64.5 C18.1,65.7 17.1,66.7 15.9,66.7 C14.7,66.6 13.7,65.7 13.7,64.5 Z M7,55.9 C7.8,55.9 8.4,56.5 8.4,57.3 C8.4,58.1 7.8,58.7 7,58.7 C6.2,58.7 5.6,58.1 5.6,57.3 C5.6,56.5 6.2,55.9 7,55.9 Z M5.1,62.9 C5.1,61.9 6,61 7,61 C8,61 8.9,61.9 8.9,62.9 C8.9,63.9 8,64.8 7,64.8 C6,64.8 5.1,63.9 5.1,62.9 Z M55.6,67.7 L72.8,67.7 L72.8,71 L55.6,71 L55.6,67.7 Z M41,17.6 L45.6,17.6 C45.9,17.6 46.6,18.4 46.8,19.5 L39.7,19.5 C40.1,18.4 40.8,17.7 41,17.6 Z M39.5,21.5 L47.1,21.5 C48,21.5 49.5,22.7 49.9,24.5 L36.7,24.5 C37.1,22.8 38.7,21.5 39.5,21.5 Z M32.9,26.5 L53.7,26.5 L53.5,71 L48.7,71 L48.7,63.2 C48.7,60.2 46.3,57.8 43.3,57.8 C40.3,57.8 37.9,60.2 37.9,63.2 L37.9,71 L32.9,71 L32.9,26.5 L32.9,26.5 Z M46.7,71.1 L39.9,71.1 L39.9,63.3 C39.9,61.4 41.4,59.9 43.3,59.9 C45.2,59.9 46.7,61.4 46.7,63.3 L46.7,71.1 Z" id="Shape"></path>
                            <path d="M49.3,36.5 C49.9,36.5 50.3,36.1 50.3,35.5 L50.3,31.9 C50.3,31.3 49.9,30.9 49.3,30.9 C48.7,30.9 48.3,31.3 48.3,31.9 L48.3,35.5 C48.3,36.1 48.7,36.5 49.3,36.5 Z" id="Path"></path>
                            <path d="M43.4,36.5 C44,36.5 44.4,36.1 44.4,35.5 L44.4,31.9 C44.4,31.3 44,30.9 43.4,30.9 C42.8,30.9 42.4,31.3 42.4,31.9 L42.4,35.5 C42.4,36.1 42.9,36.5 43.4,36.5 Z" id="Path"></path>
                            <path d="M37.5,36.5 C38.1,36.5 38.5,36.1 38.5,35.5 L38.5,31.9 C38.5,31.3 38.1,30.9 37.5,30.9 C36.9,30.9 36.5,31.3 36.5,31.9 L36.5,35.5 C36.5,36.1 37,36.5 37.5,36.5 Z" id="Path"></path>
                            <path d="M49.3,45.9 C49.9,45.9 50.3,45.5 50.3,44.9 L50.3,41.3 C50.3,40.7 49.9,40.3 49.3,40.3 C48.7,40.3 48.3,40.7 48.3,41.3 L48.3,44.9 C48.3,45.4 48.7,45.9 49.3,45.9 Z" id="Path"></path>
                            <path d="M43.4,45.9 C44,45.9 44.4,45.5 44.4,44.9 L44.4,41.3 C44.4,40.7 44,40.3 43.4,40.3 C42.8,40.3 42.4,40.7 42.4,41.3 L42.4,44.9 C42.4,45.4 42.9,45.9 43.4,45.9 Z" id="Path"></path>
                            <path d="M37.5,45.9 C38.1,45.9 38.5,45.5 38.5,44.9 L38.5,41.3 C38.5,40.7 38.1,40.3 37.5,40.3 C36.9,40.3 36.5,40.7 36.5,41.3 L36.5,44.9 C36.5,45.4 37,45.9 37.5,45.9 Z" id="Path"></path>
                            <path d="M49.3,55.2 C49.9,55.2 50.3,54.8 50.3,54.2 L50.3,50.6 C50.3,50 49.9,49.6 49.3,49.6 C48.7,49.6 48.3,50 48.3,50.6 L48.3,54.2 C48.3,54.8 48.7,55.2 49.3,55.2 Z" id="Path"></path>
                            <path d="M43.4,55.2 C44,55.2 44.4,54.8 44.4,54.2 L44.4,50.6 C44.4,50 44,49.6 43.4,49.6 C42.8,49.6 42.4,50 42.4,50.6 L42.4,54.2 C42.4,54.8 42.9,55.2 43.4,55.2 Z" id="Path"></path>
                            <path d="M38.5,54.2 L38.5,50.6 C38.5,50 38.1,49.6 37.5,49.6 C36.9,49.6 36.5,50 36.5,50.6 L36.5,54.2 C36.5,54.8 36.9,55.2 37.5,55.2 C38.1,55.2 38.5,54.8 38.5,54.2 Z" id="Path"></path>
                            <path d="M8.8,12.6 C8.8,15.2 10.9,17.3 13.5,17.3 C16.1,17.3 18.2,15.2 18.2,12.6 C18.2,10 16.1,7.9 13.5,7.9 C10.9,7.9 8.8,10 8.8,12.6 Z M13.4,9.9 C14.9,9.9 16.1,11.1 16.1,12.6 C16.1,14.1 14.9,15.3 13.4,15.3 C11.9,15.3 10.7,14.1 10.7,12.6 C10.8,11.1 12,9.9 13.4,9.9 Z" id="Shape"></path>
                            <path d="M14.4,4.6 L14.4,1.8 C14.4,1.2 14,0.8 13.4,0.8 C12.8,0.8 12.4,1.2 12.4,1.8 L12.4,4.6 C12.4,5.2 12.8,5.6 13.4,5.6 C14,5.6 14.4,5.2 14.4,4.6 Z" id="Path"></path>
                            <path d="M8.9,2.7 C8.6,2.2 8,2.1 7.5,2.3 C7,2.6 6.9,3.2 7.1,3.7 L8.5,6.2 C8.7,6.5 9,6.7 9.4,6.7 C9.6,6.7 9.7,6.7 9.9,6.6 C10.4,6.3 10.5,5.7 10.3,5.2 L8.9,2.7 Z" id="Path"></path>
                            <path d="M4.5,6.3 C4,6 3.4,6.2 3.1,6.7 C2.8,7.2 3,7.8 3.5,8.1 L5.9,9.5 C6.1,9.6 6.2,9.6 6.4,9.6 C6.7,9.6 7.1,9.4 7.3,9.1 C7.6,8.6 7.4,8 6.9,7.7 L4.5,6.3 Z" id="Path"></path>
                            <path d="M2.4,11.6 C1.9,11.6 1.4,12 1.4,12.6 C1.4,13.2 1.8,13.6 2.4,13.6 L5.2,13.6 C5.2,13.6 5.2,13.6 5.2,13.6 C5.7,13.6 6.2,13.2 6.2,12.6 C6.2,12 5.8,11.6 5.2,11.6 L2.4,11.6 C2.4,11.6 2.4,11.6 2.4,11.6 Z" id="Path"></path>
                            <path d="M7.1,16.2 C6.8,15.7 6.2,15.5 5.7,15.8 L3.2,17.2 C2.7,17.5 2.5,18.1 2.8,18.6 C3,18.9 3.3,19.1 3.7,19.1 C3.9,19.1 4,19.1 4.2,19 L6.7,17.6 C7.2,17.3 7.4,16.7 7.1,16.2 Z" id="Path"></path>
                            <path d="M7.1,23 C7.3,23.1 7.4,23.1 7.6,23.1 C7.9,23.1 8.3,22.9 8.5,22.6 L10,20.2 C10.3,19.7 10.1,19.1 9.7,18.8 C9.2,18.5 8.6,18.7 8.3,19.1 L6.8,21.5 C6.5,22.1 6.7,22.7 7.1,23 Z" id="Path"></path>
                            <path d="M12.2,20.9 L12.1,23.7 C12.1,24.3 12.5,24.7 13.1,24.7 C13.1,24.7 13.1,24.7 13.1,24.7 C13.6,24.7 14.1,24.3 14.1,23.7 L14.2,20.9 C14.2,20.3 13.8,19.9 13.2,19.9 C12.7,19.9 12.2,20.4 12.2,20.9 Z" id="Path"></path>
                            <path d="M18.1,19.6 C17.8,19.1 17.2,18.9 16.7,19.2 C16.2,19.5 16,20.1 16.3,20.6 L17.6,23.1 C17.8,23.4 18.1,23.6 18.5,23.6 C18.7,23.6 18.8,23.6 19,23.5 C19.5,23.2 19.7,22.6 19.4,22.1 L18.1,19.6 Z" id="Path"></path>
                            <path d="M22.2,19.6 C22.4,19.7 22.6,19.8 22.7,19.8 C23,19.8 23.4,19.6 23.5,19.3 C23.8,18.8 23.7,18.2 23.2,17.9 L20.8,16.4 C20.3,16.1 19.7,16.2 19.4,16.7 C19.1,17.2 19.2,17.8 19.7,18.1 L22.2,19.6 Z" id="Path"></path>
                            <path d="M24.5,14.3 C25,14.3 25.5,13.9 25.5,13.3 C25.5,12.7 25.1,12.3 24.6,12.3 L21.8,12.2 C21.3,12.2 20.8,12.6 20.8,13.1 C20.8,13.7 21.2,14.1 21.7,14.1 L24.5,14.3 C24.4,14.3 24.4,14.3 24.5,14.3 Z" id="Path"></path>
                            <path d="M22.8,6.9 L20.3,8.2 C19.8,8.4 19.6,9.1 19.9,9.5 C20.1,9.8 20.4,10 20.8,10 C21,10 21.1,10 21.3,9.9 L23.8,8.6 C24.3,8.4 24.5,7.7 24.2,7.3 C23.9,6.9 23.3,6.7 22.8,6.9 Z" id="Path"></path>
                            <path d="M20.1,2.8 C19.6,2.5 19,2.6 18.7,3.1 L17.1,5.5 C16.8,6 16.9,6.6 17.4,6.9 C17.6,7 17.8,7.1 18,7.1 C18.3,7.1 18.6,6.9 18.8,6.7 L20.4,4.3 C20.7,3.7 20.5,3.1 20.1,2.8 Z" id="Path"></path>
                        </g>
                    </g>
                </g>
            </g>
        </g>
    </g>
</svg>