<?xml version="1.0" encoding="UTF-8"?>
<svg width="140px" height="139px" viewBox="0 0 140 139" version="1.1" xmlns="http://www.w3.org/2000/svg" xmlns:xlink="http://www.w3.org/1999/xlink">
    <!-- Generator: Sketch 53.2 (72643) - https://sketchapp.com -->
    <title>ZG_icon_home_promeneur</title>
    <desc>Created with Sketch.</desc>
    <defs>
        <filter x="-8.4%" y="-21.8%" width="116.9%" height="143.7%" filterUnits="objectBoundingBox" id="filter-1">
            <feOffset dx="0" dy="12" in="SourceAlpha" result="shadowOffsetOuter1"></feOffset>
            <feGaussianBlur stdDeviation="15" in="shadowOffsetOuter1" result="shadowBlurOuter1"></feGaussianBlur>
            <feColorMatrix values="0 0 0 0 0.0156862745   0 0 0 0 0.0941176471   0 0 0 0 0.223529412  0 0 0 0.1 0" type="matrix" in="shadowBlurOuter1" result="shadowMatrixOuter1"></feColorMatrix>
            <feMerge>
                <feMergeNode in="shadowMatrixOuter1"></feMergeNode>
                <feMergeNode in="SourceGraphic"></feMergeNode>
            </feMerge>
        </filter>
    </defs>
    <g id="Desktop-Design" stroke="none" stroke-width="1" fill="none" fill-rule="evenodd">
        <g id="z0G_Home_1" transform="translate(-762.000000, -2310.000000)">
            <g id="Group-7" transform="translate(32.000000, 2200.000000)">
                <g id="Group-6" filter="url(#filter-1)" transform="translate(0.000000, 63.000000)">
                    <g id="ZG_icon_home_promeneur" transform="translate(750.000000, 54.000000)">
                        <rect id="Rectangle-Copy-33" x="0" y="0" width="100" height="100"></rect>
                        <g id="noun_Map_1851394_000000" transform="translate(10.000000, 10.000000)" fill="#FFD051" fill-rule="nonzero">
                            <path d="M59.2373047,58.090332 C59.2373047,63.6303711 65.8027344,70.6040039 66.0830078,70.8984375 C66.2714844,71.097168 66.5332031,71.2094727 66.8076172,71.2094727 C66.8105469,71.2094727 66.8144531,71.2094727 66.8173828,71.2094727 C67.0947266,71.206543 67.3583984,71.0888672 67.5458984,70.8842774 C67.8251953,70.5786133 74.3789062,63.3461915 74.3789062,58.0903321 C74.3789062,53.9047852 70.9824218,50.5000001 66.8076171,50.5000001 C62.6337891,50.5 59.2373047,53.9047852 59.2373047,58.090332 Z M72.3789062,58.090332 C72.3789062,61.6425781 68.4541015,66.7104492 66.7949218,68.6938476 C65.1328124,66.7631835 61.2373046,61.8393554 61.2373046,58.090332 C61.2373046,55.0078125 63.736328,52.5 66.8076171,52.5 C69.8798828,52.5 72.3789062,55.0078125 72.3789062,58.090332 Z" id="Shape"></path>
                            <path d="M7.0009766,24.3525391 C6.4482422,24.3525391 6.0009766,24.800293 6.0009766,25.3525391 C6.0009766,25.9047852 6.4482422,26.3525391 7.0009766,26.3525391 L21.6835938,26.3525391 C22.2363282,26.3525391 22.6835938,25.9047852 22.6835938,25.3525391 C22.6835938,24.800293 22.2363282,24.3525391 21.6835938,24.3525391 L21.4316407,24.3525391 L21.4316407,17.6831055 L21.6835938,17.6831055 C22.1044922,17.6831055 22.4794922,17.4199219 22.6240235,17.0244141 C22.7675782,16.6289063 22.647461,16.1860352 22.3251954,15.9160157 L14.9843751,9.7744141 C14.6132813,9.4638672 14.0722657,9.4638672 13.701172,9.7744141 L6.3593751,15.9160157 C6.0371095,16.1860352 5.9169923,16.6289063 6.060547,17.0244141 C6.2050782,17.4199219 6.5800782,17.6831055 7.0009767,17.6831055 L7.2392579,17.6831055 L7.2392579,24.3525391 L7.0009766,24.3525391 Z M19.4316406,24.3525391 L15.3183594,24.3525391 L15.3183594,17.6831055 L19.4316406,17.6831055 L19.4316406,24.3525391 Z M14.3427734,11.8452148 L18.9296875,15.6831054 L9.7548828,15.6831054 L14.3427734,11.8452148 Z M9.2392578,17.6831055 L13.3183594,17.6831055 L13.3183594,24.3525391 L9.2392578,24.3525391 L9.2392578,17.6831055 Z" id="Shape"></path>
                            <path d="M79.1425781,1 L53.1425781,1 C53.1044922,1 53.0664062,1.0024414 53.0283203,1.0063477 L27.1425781,3.9931641 L1.2568359,1.0063477 C0.9746093,0.9711915 0.6894531,1.0634766 0.477539,1.253418 C0.2646484,1.4433594 0.1425781,1.7148438 0.1425781,2 L0.1425781,77 C0.1425781,77.5078125 0.5234375,77.9350586 1.0283203,77.9936523 L27.0283203,80.9936523 C27.0664062,80.9980469 27.1044922,81 27.1425781,81 C27.180664,81 27.21875,80.9980469 27.2568359,80.9936523 L53.2001953,78 L79.1425781,78 C79.6953125,78 80.1425781,77.5522461 80.1425781,77 L80.1425781,2 C80.1425781,1.4477539 79.6953125,1 79.1425781,1 Z M31.7226562,24.2573242 C31.9121093,24.4199219 32.1435546,24.4990234 32.375,24.4990234 C32.6552734,24.4990234 32.9345703,24.3813476 33.1328125,24.1523437 C33.1591797,24.1220703 35.8212891,21.0771484 41.2783203,18.0737304 C44.0273437,16.560913 47.8216553,14.8930663 52.6425781,13.6871948 L52.6425781,40.8145752 C52.2707519,41.0263062 51.8912353,41.2373047 51.4980469,41.4453125 C51.0097657,41.7036133 50.8232422,42.3085937 51.0820313,42.796875 C51.2617188,43.1357422 51.6083985,43.3291016 51.9667969,43.3291016 C52.1240235,43.3291016 52.2841797,43.2919922 52.4335938,43.2128907 C52.5052491,43.1749879 52.5715333,43.1358033 52.6425782,43.0977174 L52.6425782,76.0508424 L28.1425782,78.8778077 L28.1425782,52.3950806 C28.6157227,52.2211914 29.0817872,52.0443116 29.5625001,51.8735352 C30.0830079,51.6884766 30.3544923,51.1166993 30.169922,50.5961914 C29.9853517,50.0756835 29.4140626,49.8051758 28.8925782,49.9887695 C28.6389161,50.0789184 28.3942872,50.1732177 28.1425782,50.2642212 L28.1425782,44.401123 C29.789795,45.6312255 31.4860841,46.9944458 33.2170411,48.5020141 L32.5869141,48.7133788 C32.0644532,48.8896483 31.7832032,49.4570311 31.959961,49.9804686 C32.100586,50.3979491 32.4902344,50.6611327 32.9072266,50.6611327 C33.0126954,50.6611327 33.1210938,50.6440429 33.2275391,50.60791 L34.9329834,50.0358275 C38.8261719,53.6031493 42.8535156,57.8975829 46.8310547,63.0878905 C47.0283203,63.3447264 47.3251953,63.4794921 47.6259766,63.4794921 C47.8378907,63.4794921 48.0517578,63.4121093 48.2333985,63.2734374 C48.6718751,62.9374999 48.7548829,62.3095702 48.4189454,61.8710936 C44.4774171,56.7280272 40.5043946,52.4483031 36.6586915,48.8709105 C36.68042,48.7210692 36.6784669,48.5669554 36.6269532,48.4135741 C36.4635011,47.9241942 35.9575196,47.6613158 35.4638673,47.7700194 C32.9426271,45.5040892 30.4886476,43.5502318 28.1425782,41.8563841 L28.1425782,5.8914185 L52.6425782,3.0643311 L52.6425782,11.598877 C38.5679932,14.9498291 31.965088,22.4421387 31.616211,22.8486329 C31.2568359,23.2675781 31.3046875,23.8974609 31.7226562,24.2573242 Z M2.1425781,3.1220703 L26.1425781,5.8914184 L26.1425781,40.4580688 C15.602539,33.3171386 7.7277832,31.6264648 7.1982422,31.5195312 C6.6582031,31.411621 6.1298828,31.7612304 6.0205078,32.302246 C5.9111328,32.8437499 6.2617187,33.3710937 6.8037109,33.4804687 C6.9334716,33.5064086 15.201416,35.2794189 26.1425781,42.9508056 L26.1425781,50.9987792 C26.1384277,51.0003661 26.1340332,51.001831 26.1298828,51.0034179 C25.6142578,51.2001952 25.3554687,51.777832 25.5517578,52.2939452 C25.6589355,52.5746459 25.8814697,52.7733764 26.1425781,52.8701171 L26.1425781,78.8778075 L2.1425781,76.1088866 L2.1425781,3.1220703 L2.1425781,3.1220703 Z M78.1425781,76 L54.642578,76 L54.6425781,41.9533691 C54.7689209,41.8763427 54.9042969,41.7998046 55.0273437,41.7226562 C55.4951171,41.4291992 55.6367187,40.8120117 55.3437499,40.3442382 C55.1816405,40.0868529 54.9208983,39.9398803 54.642578,39.8979491 L54.642578,13.2249756 C58.1967773,12.4799194 62.2497559,12 66.8076172,12 C67.3603516,12 67.8076172,11.5522461 67.8076172,11 C67.8076172,10.4477539 67.3603516,10 66.8076172,10 C62.2922363,10 58.2441406,10.4412842 54.6425781,11.1589355 L54.642578,3 L78.1425781,3 L78.1425781,76 Z" id="Shape"></path>
                            <path d="M39.3681641,48.4858398 C39.475586,48.4858398 39.5859375,48.4682617 39.6933594,48.4311523 C40.6230469,48.1118164 41.546875,47.7885742 42.4628906,47.4589843 C42.9824218,47.2719726 43.2519531,46.6987304 43.0644531,46.1791991 C42.8769531,45.6596678 42.3066406,45.3906249 41.7851562,45.5771483 C40.8789062,45.9038085 39.9628906,46.2231444 39.0429687,46.5395506 C38.5205078,46.7192381 38.243164,47.2880858 38.4228515,47.8105467 C38.5654297,48.2250977 38.953125,48.4858398 39.3681641,48.4858398 Z" id="Path"></path>
                            <path d="M11.0068359,60.4594727 C10.6367188,60.949707 10.2978516,61.4619141 10,61.9829102 C9.7255859,62.4619141 9.8925781,63.0732422 10.3710938,63.3476563 C10.5283204,63.4370118 10.6992188,63.4794922 10.8671876,63.4794922 C11.2138673,63.4794922 11.5517579,63.2988281 11.7363282,62.9760742 C11.9921876,62.5283203 12.2841798,62.086914 12.6025391,61.6645508 C12.9355469,61.2236328 12.8476563,60.5961914 12.4072266,60.2636719 C11.9648438,59.9311523 11.3388672,60.0185547 11.0068359,60.4594727 Z" id="Path"></path>
                            <path d="M45.7666016,46.1445312 C45.8896485,46.1445312 46.015625,46.121582 46.1367188,46.0732421 C47.0634766,45.7041015 47.9736329,45.3247069 48.8642579,44.9316405 C49.3691407,44.708496 49.5976563,44.1181639 49.3750001,43.6132811 C49.1523439,43.1088866 48.5644532,42.8784178 48.0556642,43.1025389 C47.1884767,43.4853514 46.2998048,43.8554686 45.3964845,44.2148436 C44.8837892,44.4194334 44.6328126,45.0009764 44.8378907,45.5136717 C44.9931641,45.9057617 45.3691406,46.1445312 45.7666016,46.1445312 Z" id="Path"></path>
                            <path d="M16.3115234,55.7211914 C15.4189453,56.2988281 14.59375,56.9008789 13.8603515,57.5102539 C13.4365234,57.8632812 13.3779296,58.4936523 13.7304687,58.918457 C13.9287109,59.15625 14.2138671,59.2792968 14.5009765,59.2792968 C14.7255859,59.2792968 14.9521484,59.2036132 15.1396484,59.0483398 C15.8115234,58.4892578 16.571289,57.9350586 17.3974609,57.4008789 C17.8613281,57.1005859 17.9941406,56.4814453 17.6943359,56.0180664 C17.3935547,55.5541992 16.7744141,55.4223633 16.3115234,55.7211914 Z" id="Path"></path>
                            <path d="M66.5410156,21.8549805 C66.5742187,21.8583985 66.6083984,21.8598633 66.6416015,21.8598633 C67.149414,21.8598633 67.5839843,21.475586 67.6357421,20.959961 C67.7333983,19.9848633 67.7910155,18.9765626 67.8076171,17.9624024 C67.8164062,17.4101563 67.3759765,16.9555665 66.8232421,16.9467774 C66.3027343,16.925293 65.8173827,17.3793946 65.8076171,17.9311524 C65.7929687,18.8886719 65.7382812,19.8403321 65.6455077,20.7597657 C65.5908203,21.3095703 65.9912109,21.7998047 66.5410156,21.8549805 Z" id="Path"></path>
                            <path d="M22.4804688,52.487793 C21.5283204,52.9038086 20.6210938,53.328125 19.7871094,53.7485352 C19.2929688,53.9965821 19.0947266,54.5981446 19.3427735,55.0913086 C19.5185547,55.4404297 19.8710938,55.6416016 20.2373047,55.6416016 C20.3886719,55.6416016 20.5419922,55.6074219 20.6855469,55.534668 C21.4882813,55.1308594 22.3613281,54.722168 23.28125,54.3208008 C23.7871094,54.0996094 24.0185547,53.5102539 23.796875,53.0039063 C23.5771484,52.4995117 22.9931641,52.2685547 22.4804688,52.487793 Z" id="Path"></path>
                            <path d="M64.9052734,28.4516602 C65.0117187,28.487793 65.1210937,28.5053711 65.227539,28.5053711 C65.6435546,28.5053711 66.0322265,28.2431641 66.1738281,27.8271484 C66.4921875,26.8935546 66.7685547,25.9155273 66.9941406,24.9204101 C67.1171875,24.3818359 66.7802734,23.8457031 66.2412109,23.7231445 C65.7021484,23.6000976 65.1669921,23.9384765 65.0449218,24.4760742 C64.8330077,25.4038086 64.5761718,26.3144531 64.2812499,27.1826172 C64.1025391,27.7055664 64.3828125,28.2734375 64.9052734,28.4516602 Z" id="Path"></path>
                            <path d="M60.4648438,35.8842773 C60.0644532,35.5043945 59.4306641,35.5209961 59.0507813,35.9213867 C58.4160157,36.5908203 57.7294922,37.2348633 57.0087891,37.8354492 C56.584961,38.1894531 56.5273438,38.8203125 56.881836,39.2441406 C57.0791016,39.4814453 57.3632813,39.6035156 57.6503907,39.6035156 C57.8759766,39.6035156 58.1035157,39.5273437 58.2900391,39.371582 C59.069336,38.7207031 59.8134766,38.0234375 60.5019532,37.2983398 C60.8818359,36.8974609 60.8652344,36.2646484 60.4648438,35.8842773 Z" id="Path"></path>
                            <path d="M62.2128906,34.5849609 C62.5322265,34.5849609 62.8466797,34.4321289 63.040039,34.1479492 C63.6035156,33.321289 64.1259765,32.4448242 64.5947265,31.5419922 C64.8486327,31.0517578 64.6582031,30.4482422 64.1679687,30.1938477 C63.6757812,29.9399415 63.0732421,30.1303711 62.8193359,30.6210938 C62.3876953,31.453125 61.90625,32.2607422 61.3876953,33.0219727 C61.0761719,33.4785157 61.1943359,34.100586 61.6503906,34.4111329 C61.8232422,34.5288086 62.0195312,34.5849609 62.2128906,34.5849609 Z" id="Path"></path>
                            <path d="M9.9521484,64.3637695 C9.4208984,64.2226562 8.8701172,64.5375976 8.727539,65.0708007 C8.5126952,65.8730468 8.3710937,66.7148437 8.3085937,67.5727538 C8.2675781,68.123535 8.6816406,68.602539 9.2324218,68.6430663 C9.2568359,68.6450194 9.2822265,68.645996 9.3066406,68.645996 C9.8251953,68.645996 10.2646484,68.2451171 10.3027344,67.7192382 C10.3564453,66.986328 10.4765625,66.2695312 10.6591797,65.5883788 C10.8017578,65.0546875 10.4853516,64.5063477 9.9521484,64.3637695 Z" id="Path"></path>
                        </g>
                    </g>
                </g>
            </g>
        </g>
    </g>
</svg>